<svg xmlns="http://www.w3.org/2000/svg" xmlns:xlink="http://www.w3.org/1999/xlink" id="Capa_1" x="0px" y="0px" viewBox="0 0 92.7 92.5" style="enable-background:new 0 0 92.7 92.5;" xml:space="preserve">
<style type="text/css">	.st0{clip-path:url(#SVGID_00000060028175746561753120000004585363299757007765_);}	.st1{clip-path:url(#SVGID_00000078005670547898957350000014335956931167935140_);}	.st2{clip-path:url(#SVGID_00000081611915243546160500000015590206851508775343_);}	.st3{opacity:0.8;fill:#4D4D4D;}	.st4{fill:#FFFFFF;}	.st5{fill:url(#SVGID_00000100374388711444186010000008808060758177595273_);}	.st6{fill:url(#SVGID_00000062164295647553026390000018357112394505339794_);}	.st7{fill:#6F6F6E;}	.st8{fill:#038D84;stroke:#038D84;stroke-width:0.4125;stroke-miterlimit:10;}	.st9{fill:url(#SVGID_00000175300081809267578400000002881287425974373048_);}	.st10{fill:url(#SVGID_00000003784110288900933240000013637432864614550921_);}	.st11{fill:url(#SVGID_00000160168610861957754350000003283152356321370523_);}	.st12{fill:url(#SVGID_00000016054163962751354970000012917051718745152943_);}	.st13{opacity:0.75;fill:url(#SVGID_00000035512246260716516480000009167021035416382340_);}	.st14{fill:url(#SVGID_00000151511441201624580150000001708666256981445784_);}	.st15{fill:none;stroke:#CBCBCB;stroke-width:0.5;stroke-miterlimit:10;}	.st16{fill:#B2B2B2;}	.st17{fill:#00A89C;}	.st18{fill:url(#SVGID_00000078756512933198776630000015189501619366961312_);}	.st19{fill:url(#SVGID_00000005952559338933359520000008043227060700331648_);}	.st20{fill:url(#SVGID_00000124872513524332902800000016303474394934473093_);}	.st21{fill:url(#SVGID_00000039117922667803438650000018199565048145156737_);}	.st22{fill:url(#SVGID_00000145774916424880183820000006133227380903119011_);}	.st23{fill:url(#SVGID_00000127766713619520321810000013694539017284292018_);}	.st24{opacity:0.75;fill:url(#SVGID_00000172429428839459632200000009816871971638704265_);}	.st25{fill:url(#SVGID_00000005984561155775964690000008863494049610619795_);}	.st26{fill:none;stroke:#FAAF3B;stroke-width:3;stroke-miterlimit:10;}	.st27{fill:url(#SVGID_00000089534834039048167810000003836197461045486469_);}	.st28{fill:url(#SVGID_00000117671230509791350070000010482220371467510920_);}	.st29{fill:url(#SVGID_00000111149355530723136350000005296624234129920700_);}	.st30{fill:url(#SVGID_00000116944464345131661370000014305252497131487668_);}	.st31{fill:url(#SVGID_00000113325750051988030660000017104503190193619899_);}	.st32{fill:url(#SVGID_00000110454458816791143310000005651894350395115967_);}	.st33{fill:url(#SVGID_00000172415926819299104000000003540185931700445320_);}	.st34{fill:url(#SVGID_00000002382773679468559030000005813369522059874707_);}	.st35{fill:url(#SVGID_00000002348517742630139870000009891181642000617620_);}	.st36{fill:url(#SVGID_00000096739666812734721390000011037245914859226552_);}	.st37{opacity:0.75;fill:url(#SVGID_00000176006541623247004240000016171441594907571627_);}	.st38{fill:url(#SVGID_00000122703696867114854260000017970222749601773450_);}	.st39{fill:url(#SVGID_00000051371718492196524030000005465602559226412956_);}	.st40{fill:url(#SVGID_00000079478813125646483400000005692707220458855857_);}	.st41{fill:url(#SVGID_00000129168640579484540400000018407542063559561659_);}	.st42{fill:url(#SVGID_00000158010728686593482400000017250855670950182833_);}	.st43{fill:url(#SVGID_00000114060736128695953550000001415403892201070209_);}	.st44{fill:url(#SVGID_00000170977506467902416050000000404159990934499505_);}	.st45{opacity:0.75;fill:url(#SVGID_00000006701618843934463240000005475007146017370246_);}	.st46{fill:url(#SVGID_00000088111233965181983400000011655128197368959140_);}	.st47{fill:url(#SVGID_00000058567201829876065150000003909752976486689722_);}	.st48{fill:url(#SVGID_00000089563269005913437830000015062755845336122022_);}	.st49{fill:url(#SVGID_00000148640593951635609880000009109897841796320438_);}	.st50{fill:url(#SVGID_00000082339544899415466490000006252539082740569006_);}	.st51{fill:url(#SVGID_00000084523571012754987130000016866092495452956842_);}	.st52{fill:url(#SVGID_00000183944259628080939570000001094884334572813203_);}	.st53{opacity:0.75;fill:url(#SVGID_00000173140921387720943910000007651507181182327721_);}	.st54{fill:url(#SVGID_00000145775004306143682880000017438726529530755747_);}	.st55{fill:#FAAF3B;}	.st56{fill:none;stroke:#00A89C;stroke-width:1.5;stroke-miterlimit:10;}	.st57{fill:url(#SVGID_00000124140370753040805160000016838153350841611663_);}	.st58{fill:url(#SVGID_00000054261468749088428070000018366251266063760536_);}	.st59{fill:url(#SVGID_00000133529140618143324150000016262547886568049802_);}	.st60{fill:url(#SVGID_00000168817727900241406990000008587807507710176930_);}	.st61{fill:url(#SVGID_00000053543999998553858090000001381880447842311356_);}	.st62{fill:url(#SVGID_00000091720727371528500820000008204892893429286045_);}	.st63{opacity:0.75;fill:url(#SVGID_00000011712717288643989810000015998141984597022376_);}	.st64{fill:url(#SVGID_00000161599965266360523370000011205768937634364815_);}	.st65{fill:none;stroke:#FAAF3B;stroke-width:3.75;stroke-miterlimit:10;}	.st66{clip-path:url(#SVGID_00000171698112618547934750000012136304516020354450_);}	.st67{clip-path:url(#SVGID_00000030450287736289060110000009858277596467174329_);}	.st68{clip-path:url(#SVGID_00000071526843914498082160000008416964448501834681_);}	.st69{clip-path:url(#SVGID_00000167371789927694080710000007593837789010609819_);}	.st70{clip-path:url(#SVGID_00000142873877651540891560000006331976133679106952_);}	.st71{fill:#333333;}	.st72{fill:#038D84;}	.st73{fill:url(#SVGID_00000049221042222799189150000001698764089771814287_);}	.st74{fill:url(#SVGID_00000145060906119902877630000013352308634517227654_);}	.st75{fill:url(#SVGID_00000095328615486568241010000010872641454983826357_);}	.st76{fill:url(#SVGID_00000035510958925002966930000007171830655848151482_);}	.st77{fill:url(#SVGID_00000150060179407121694430000004806583664051649935_);}	.st78{fill:url(#SVGID_00000104671896027191586670000015438505103759258262_);}	.st79{opacity:0.75;fill:url(#SVGID_00000020361986313727350180000000938918334726822046_);}	.st80{fill:url(#SVGID_00000070083290898390246300000006062002191808928387_);}	.st81{fill:none;stroke:#FFFFFF;stroke-width:1.5;stroke-miterlimit:10;}	.st82{fill:none;stroke:#F6921E;stroke-width:2;stroke-miterlimit:10;}	.st83{fill:#F6921E;}	.st84{fill:none;stroke:#FFFFFF;stroke-width:2;stroke-miterlimit:10;}	.st85{fill:#FF00FF;}	.st86{fill:none;stroke:#FFFFFF;stroke-width:3;stroke-linecap:round;stroke-linejoin:round;stroke-miterlimit:10;}	.st87{fill:url(#SVGID_00000067918612738907509780000003953027477383472825_);}	.st88{fill:#FFB900;}	.st89{fill:#98D1CF;}	.st90{fill:url(#SVGID_00000038390953176898172700000010048809376636524677_);}	.st91{fill:url(#SVGID_00000023245448258187777140000016674204295182933158_);}	.st92{fill:url(#SVGID_00000147925843337469663970000005683740055004482208_);}	.st93{fill:url(#SVGID_00000003106154792373565300000008368021864705511597_);}	.st94{fill:url(#SVGID_00000093144462947059659400000004290097601045700226_);}	.st95{fill:url(#SVGID_00000036960638560529031960000017462082128969727657_);}	.st96{opacity:0.75;fill:url(#SVGID_00000000931446023674898050000009271043938429462958_);}	.st97{fill:url(#SVGID_00000139977757059909204810000017394853569199963034_);}	.st98{fill:url(#SVGID_00000155127087428712280520000017464546343618971065_);}	.st99{fill:url(#SVGID_00000128445641465509616830000015492075465122768787_);}	.st100{fill:url(#SVGID_00000013158617266700328680000005967476921338838196_);}	.st101{opacity:0.75;fill:url(#SVGID_00000171689637899467248590000014319211026887221384_);}	.st102{fill:#808080;}	.st103{fill:url(#SVGID_00000062182020122040329330000009760284651235732882_);}</style><g>	<path d="M34.5,49.4c-0.5-0.1-1.1-0.1-1.6-0.1c-5.8,0-10.5,4.7-10.5,10.5c0,5.8,4.7,10.5,10.5,10.5c5.8,0,10.5-4.7,10.5-10.5  c0-0.5,0-0.9-0.1-1.4l-10,5.7l-0.7,0.4l-0.7-0.3c-1.4-0.6-2.6-1.6-3.2-3l-0.4-0.8l0.4-0.7L34.5,49.4z"></path>	<path d="M48.7,48.6L46,51.4l2.6,0.8l2.5,0.8C50.5,51.4,49.7,50,48.7,48.6z"></path>	<path d="M37.6,43.9l1.4-2.5c-2-0.7-4-1-6.2-1c-10.7,0-19.4,8.7-19.4,19.4c0,10.7,8.7,19.4,19.4,19.4c10.7,0,19.4-8.7,19.4-19.4  c0-2.1-0.3-4.1-0.9-6l-2.4,1.4l-1.3,0.8c0.3,1.2,0.5,2.5,0.5,3.8c0,8.4-6.8,15.2-15.2,15.2c-8.4,0-15.2-6.8-15.2-15.2  c0-8.4,6.8-15.2,15.2-15.2c1.4,0,2.8,0.2,4.1,0.6L37.6,43.9z"></path>	<path d="M41.3,46.8l2.8-2.8c-1.4-1-2.9-1.8-4.5-2.4l0.8,2.6L41.3,46.8z"></path>	<path d="M55.3,42.1c3.8,4.9,6.1,11,6.1,17.7c0,15.8-12.8,28.6-28.6,28.6c-15.8,0-28.6-12.8-28.6-28.6c0-15.8,12.8-28.6,28.6-28.6  c6.8,0,13,2.4,17.9,6.3l3-3c-5.7-4.7-13-7.5-20.9-7.5C14.7,26.9,0,41.6,0,59.7c0,18.1,14.7,32.8,32.8,32.8  c18.1,0,32.8-14.7,32.8-32.8c0-7.8-2.8-15-7.3-20.7L55.3,42.1z"></path>	<path d="M91,9.9l-10,2l-0.2-0.2l2-10c0.1-0.3,0.1-0.6,0.1-0.9c0-0.9-0.4-1.1-1.1-0.4c-0.9,0.9-1.9,2.9-2.2,4.5l-1.4,7.3l-2,2  l1.4-7.3c0.1-0.3,0.1-0.6,0.1-0.9c0-0.9-0.4-1.1-1.1-0.4c-0.9,0.9-1.9,2.9-2.2,4.5L73,17.4l-2,2l1.4-7.3c0.1-0.3,0.1-0.6,0.1-0.9  c0-0.9-0.4-1.1-1.1-0.4c-0.9,0.9-1.9,2.9-2.2,4.5l-1.4,7.3L40.6,49.8L39,44.7l-9,15.8c0.5,1,1.3,1.8,2.4,2.2l15.7-8.9L43,52.1  l27.1-27.1l7.3-1.4c1.6-0.3,3.6-1.3,4.5-2.2c0.3-0.3,0.4-0.5,0.4-0.7c0-0.4-0.6-0.5-1.7-0.3l-7.3,1.4l2-2l7.3-1.4  c1.6-0.3,3.6-1.3,4.5-2.2c0.3-0.3,0.4-0.5,0.4-0.7c0-0.4-0.6-0.5-1.7-0.3l-7.3,1.4l2-2l7.3-1.4c1.6-0.3,3.6-1.3,4.5-2.2  c0.3-0.3,0.4-0.5,0.4-0.7C92.7,9.8,92.1,9.7,91,9.9z"></path>
    </g>
</svg>