<svg xmlns="http://www.w3.org/2000/svg" xmlns:xlink="http://www.w3.org/1999/xlink" id="Capa_1" x="0px" y="0px" viewBox="0 0 70 70" style="enable-background:new 0 0 70 70;" xml:space="preserve"><style type="text/css">	.st0{clip-path:url(#SVGID_00000061450621279225547530000007495602692919860372_);}	.st1{clip-path:url(#SVGID_00000009563995833445273200000000217400841067624356_);}	.st2{clip-path:url(#SVGID_00000109013164897767721540000010505429373968515731_);}	.st3{opacity:0.8;fill:#4D4D4D;}	.st4{fill:#FFFFFF;}	.st5{fill:url(#SVGID_00000168109685065951412100000017678914099054505632_);}	.st6{fill:url(#SVGID_00000036225540751641305390000011944181579570395577_);}	.st7{fill:#6F6F6E;}	.st8{fill:#038D84;stroke:#038D84;stroke-width:0.4125;stroke-miterlimit:10;}	.st9{fill:url(#SVGID_00000170261486928550466320000008292212801349979787_);}	.st10{fill:url(#SVGID_00000169527723683876482590000004635339956967917448_);}	.st11{fill:url(#SVGID_00000081607226634453221000000009901367134923899298_);}	.st12{fill:url(#SVGID_00000114768784002057373530000014756325563938848395_);}	.st13{opacity:0.75;fill:url(#SVGID_00000150073914301939040120000000281477855520200328_);}	.st14{fill:url(#SVGID_00000102506808175498052490000007289077245799427770_);}	.st15{fill:none;stroke:#CBCBCB;stroke-width:0.5;stroke-miterlimit:10;}	.st16{fill:#B2B2B2;}	.st17{fill:#00A89C;}	.st18{fill:url(#SVGID_00000170990649802775511960000003451165520344140459_);}	.st19{fill:url(#SVGID_00000134215894688484707060000009437768671637971366_);}	.st20{fill:url(#SVGID_00000034794257746760448590000000959408831547586437_);}	.st21{fill:url(#SVGID_00000101781456102626514060000008831610969988040856_);}	.st22{fill:url(#SVGID_00000056402022295698366930000003528665305542793349_);}	.st23{fill:url(#SVGID_00000140708512294536883960000012800107227082303104_);}	.st24{opacity:0.75;fill:url(#SVGID_00000127018757474363348350000010942178448727231143_);}	.st25{fill:url(#SVGID_00000142892187002616097440000010323568947889762691_);}	.st26{fill:none;stroke:#FAAF3B;stroke-width:3;stroke-miterlimit:10;}	.st27{fill:url(#SVGID_00000084523028535261644390000014413906296858568377_);}	.st28{fill:url(#SVGID_00000039821857381042941270000004481259611596853164_);}	.st29{fill:url(#SVGID_00000036247459108419070570000016878031805677729707_);}	.st30{fill:url(#SVGID_00000000931882796425074480000016583670647823661474_);}	.st31{fill:url(#SVGID_00000045584518238752256070000017494616262049381052_);}	.st32{fill:url(#SVGID_00000010294219231082307380000003389449428546432435_);}	.st33{fill:url(#SVGID_00000003102326647690848960000003756474826431749272_);}	.st34{fill:url(#SVGID_00000026867191957340897350000018260341535890980226_);}	.st35{fill:url(#SVGID_00000012452489816603804770000011882350219394257026_);}	.st36{fill:url(#SVGID_00000064323468920839460450000002513568997779319937_);}	.st37{opacity:0.75;fill:url(#SVGID_00000058574277084088542920000017716092767798050478_);}	.st38{fill:url(#SVGID_00000080924701494907542520000003345191450208698042_);}	.st39{fill:url(#SVGID_00000108995417384981669360000015896964154769518748_);}	.st40{fill:url(#SVGID_00000008848460596527314040000005399031862869985711_);}	.st41{fill:url(#SVGID_00000071531769837823075930000006985181586043262857_);}	.st42{fill:url(#SVGID_00000178900499281413366000000015137102643488397467_);}	.st43{fill:url(#SVGID_00000018920139951229853750000006139869395036559530_);}	.st44{fill:url(#SVGID_00000077294512564827316550000004252359196187426945_);}	.st45{opacity:0.75;fill:url(#SVGID_00000049223612843620956450000003438294217438549147_);}	.st46{fill:url(#SVGID_00000059308294202091740470000002340313444156264841_);}	.st47{fill:url(#SVGID_00000144310786111331526380000003800333409340584633_);}	.st48{fill:url(#SVGID_00000034059102578820420160000005995102973698825865_);}	.st49{fill:url(#SVGID_00000124878819500023413650000005252179161506987441_);}	.st50{fill:url(#SVGID_00000116948978902958881480000010831266774145125821_);}	.st51{fill:url(#SVGID_00000012466386333906268310000001740386496332995457_);}	.st52{fill:url(#SVGID_00000120554797818465235460000010348727078039960735_);}	.st53{opacity:0.75;fill:url(#SVGID_00000006694054084202109420000002728736854833421247_);}	.st54{fill:url(#SVGID_00000084496395724680307010000002002708229430219705_);}	.st55{fill:#FAAF3B;}	.st56{fill:none;stroke:#00A89C;stroke-width:1.5;stroke-miterlimit:10;}	.st57{fill:url(#SVGID_00000016762766596914132220000014608344700941909691_);}	.st58{fill:url(#SVGID_00000087393308957239623740000012185490842941613701_);}	.st59{fill:url(#SVGID_00000010999213539315945470000010925882201205911441_);}	.st60{fill:url(#SVGID_00000155826593591267334280000002853027559556997043_);}	.st61{fill:url(#SVGID_00000101812954135985105720000013105250137981796232_);}	.st62{fill:url(#SVGID_00000054945066562512581540000011982732725230301065_);}	.st63{opacity:0.75;fill:url(#SVGID_00000100383161930509011230000011600118872551879590_);}	.st64{fill:url(#SVGID_00000084520023926753940090000013864888815755412124_);}	.st65{fill:none;stroke:#FAAF3B;stroke-width:3.75;stroke-miterlimit:10;}	.st66{clip-path:url(#SVGID_00000144323440896870365240000011313219651993938607_);}	.st67{clip-path:url(#SVGID_00000044857672849388430670000005978577581376089786_);}	.st68{clip-path:url(#SVGID_00000003088929063517691050000004363121929506702495_);}	.st69{clip-path:url(#SVGID_00000160175777393654928530000007761806149029218746_);}	.st70{clip-path:url(#SVGID_00000040533272496672165730000006605532034652272779_);}	.st71{fill:#333333;}	.st72{fill:#038D84;}	.st73{fill:url(#SVGID_00000067920099427591019330000002463343788768861591_);}	.st74{fill:url(#SVGID_00000158017978763353086250000013058069458423293847_);}	.st75{fill:url(#SVGID_00000113343805410421439510000000186547129121423252_);}	.st76{fill:url(#SVGID_00000173144759387175615070000011350827287441892767_);}	.st77{fill:url(#SVGID_00000098218613344139598770000018412545184521753766_);}	.st78{fill:url(#SVGID_00000029767695884577841170000003031993688536798628_);}	.st79{opacity:0.75;fill:url(#SVGID_00000101082393036487717540000012839939479588523420_);}	.st80{fill:url(#SVGID_00000110447094002050252970000015434039924252499119_);}	.st81{fill:none;stroke:#FFFFFF;stroke-width:1.5;stroke-miterlimit:10;}	.st82{fill:none;stroke:#F6921E;stroke-width:2;stroke-miterlimit:10;}	.st83{fill:#F6921E;}	.st84{fill:none;stroke:#FFFFFF;stroke-width:2;stroke-miterlimit:10;}	.st85{fill:#FF00FF;}	.st86{fill:none;stroke:#FFFFFF;stroke-width:3;stroke-linecap:round;stroke-linejoin:round;stroke-miterlimit:10;}	.st87{fill:url(#SVGID_00000054235162007746163450000016357847749055925154_);}	.st88{fill:#FFB900;}	.st89{fill:#98D1CF;}	.st90{fill:url(#SVGID_00000105416323516452552490000014108892782107013548_);}	.st91{fill:url(#SVGID_00000021821861998419722360000010238686024483379874_);}	.st92{fill:url(#SVGID_00000056391348927616681870000007193951994720515258_);}	.st93{fill:url(#SVGID_00000009579340639333287550000007951371851540350139_);}	.st94{fill:url(#SVGID_00000113325860322492011580000008816058424941143440_);}	.st95{fill:url(#SVGID_00000091715661700509545480000011675066936771126704_);}	.st96{opacity:0.75;fill:url(#SVGID_00000021117855521183500780000003061567916307227572_);}	.st97{fill:url(#SVGID_00000097493135152239589950000003470166829337136010_);}	.st98{fill:url(#SVGID_00000181077966854515529380000007043556611496123833_);}	.st99{fill:url(#SVGID_00000079444532263019023740000000465676173299702658_);}	.st100{fill:url(#SVGID_00000114781077066018804370000006413036213367990718_);}	.st101{opacity:0.75;fill:url(#SVGID_00000015333866249822416420000013873023016449111740_);}	.st102{fill:#808080;}	.st103{fill:#E38104;}	.st104{clip-path:url(#SVGID_00000155110760380537239270000004106329999911893637_);}</style><g id="XMLID_00000013193614266660301890000008817973410084886683_">	<path id="XMLID_00000173878831382623826880000008012768967848767624_" d="M11,32.2c-2.1,2.1-3.3,4.9-3.3,7.9  c0,6.2,5,11.2,11.2,11.2h0c3,0,5.8-1.2,7.9-3.3c1.1-1.1,2-2.5,2.5-3.9l10.5,0c1.6,4.2,5.7,7.2,10.5,7.2h0c3,0,5.8-1.2,7.9-3.3  c2.1-2.1,3.3-4.9,3.3-7.9c0-6.2-5-11.2-11.2-11.2c-1.8,0-3.6,0.4-5.1,1.2c-0.7-1-1.4-2-2.4-2.8c-0.5-0.5-1.4-0.5-2-0.1  c-0.1,0-6.2,4.7-12.1,0.4l-3.1-4.8c2.1,2.5,5.2,4.1,8.7,4.1h0c3,0,5.8-1.2,7.9-3.3c2.1-2.1,3.3-4.9,3.3-7.9c0-6.2-5-11.2-11.2-11.2  c-3,0-5.8,1.2-7.9,3.3c-2.1,2.1-3.3,5-3.3,7.9c0,1.8,0.4,3.5,1.2,5L20.6,15c-1.1-1.8-3.5-2.3-5.3-1.1c-1.8,1.1-2.3,3.5-1.1,5.3  l6.4,9.9c-0.5-0.1-1.1-0.1-1.6-0.1C15.9,28.9,13.1,30.1,11,32.2z M28.6,9.9c1.6-1.6,3.6-2.4,5.8-2.4c4.5,0,8.2,3.7,8.2,8.2  c0,2.2-0.9,4.2-2.4,5.8c-1.5,1.6-3.6,2.4-5.8,2.4c-4.5,0-8.2-3.7-8.2-8.2C26.2,13.6,27,11.5,28.6,9.9z M44.6,34.3  c1.6-1.6,3.6-2.4,5.8-2.4c4.5,0,8.2,3.7,8.2,8.2c0,2.2-0.9,4.2-2.4,5.8c-1.5,1.6-3.6,2.4-5.8,2.4h0c-4.5,0-8.2-3.7-8.2-8.2  C42.2,37.9,43,35.9,44.6,34.3z M16.2,17.8c-0.2-0.3-0.3-0.7-0.2-1c0.1-0.4,0.3-0.7,0.6-0.9c0.6-0.4,1.5-0.2,1.9,0.4l7.3,11.3l0,0  l1.9,2.9l0.1,0.1c0.5,0.3,1.1,0.6,1.6,0.8c0.4,0.2,0.9,0.4,1.4,0.5c4.7,1.4,9-0.6,10.8-1.6c0.4,0.5,0.8,1,1.1,1.5  c-0.1,0.1-0.2,0.2-0.3,0.3c-2.1,2.1-3.3,4.9-3.3,7.9c0,0.3,0,0.6,0,1h-9.1c0-0.3,0-0.6,0-1c0-4.3-2.4-8-5.9-9.9L24.1,30L16.2,17.8z   M27.1,40.1c0,2.2-0.9,4.2-2.4,5.8c-1.6,1.6-3.6,2.4-5.8,2.4h0c-4.5,0-8.2-3.7-8.2-8.2c0-2.2,0.9-4.3,2.4-5.8  c1.6-1.6,3.6-2.4,5.8-2.4C23.5,31.9,27.1,35.6,27.1,40.1z"></path>	<path id="XMLID_00000126306170689255296080000010279296577734643372_" d="M5.1,68c0.3,0.3,0.7,0.5,1.1,0.5l25.4,0  c0.8,0,1.5-0.6,1.5-1.5c0-0.4,0.3-9.9-5.7-15.3c-0.5-0.5-1.4-0.5-1.9-0.1c-0.3,0.2-6.7,4.9-12.7,0c-0.6-0.5-1.4-0.5-1.9,0  c-0.2,0.2-6,5.3-6.1,15.3C4.7,67.4,4.9,67.8,5.1,68z M12,54.8c5.3,3.5,11.1,1.9,14.2,0c3,3.4,3.7,8.3,3.9,10.7l-22.3,0  C8.3,59.9,10.7,56.3,12,54.8z"></path>	<path id="XMLID_00000146477800457654549160000012906671366100298636_" d="M56.9,51.6c-0.3,0.2-6.7,4.9-12.7,0  c-0.6-0.5-1.4-0.5-1.9,0c-0.2,0.2-6,5.3-6.1,15.3c0,0.4,0.2,0.8,0.4,1.1c0.3,0.3,0.7,0.5,1.1,0.5l25.4,0c0.8,0,1.5-0.6,1.5-1.5  c0-0.4,0.3-9.9-5.7-15.3C58.3,51.2,57.5,51.2,56.9,51.6z M61.5,65.5l-22.3,0c0.5-5.6,2.9-9.1,4.2-10.7c5.3,3.5,11.1,1.9,14.2,0  C60.7,58.2,61.4,63.1,61.5,65.5z"></path></g></svg>