<svg xmlns="http://www.w3.org/2000/svg" xmlns:xlink="http://www.w3.org/1999/xlink" id="Capa_1" x="0px" y="0px" viewBox="0 0 70 70" style="enable-background:new 0 0 70 70;" xml:space="preserve"><style type="text/css">	.st0{clip-path:url(#SVGID_00000026136310040586585240000010286158651928926347_);}	.st1{clip-path:url(#SVGID_00000127019971567997366760000009658508528228098211_);}	.st2{clip-path:url(#SVGID_00000176748379634764116130000009378828232062803627_);}	.st3{opacity:0.8;fill:#4D4D4D;}	.st4{fill:#FFFFFF;}	.st5{fill:url(#SVGID_00000121985926634256772040000002975795037881764025_);}	.st6{fill:url(#SVGID_00000048486890379889690110000017885596998815127430_);}	.st7{fill:#6F6F6E;}	.st8{fill:#038D84;stroke:#038D84;stroke-width:0.4125;stroke-miterlimit:10;}	.st9{fill:url(#SVGID_00000131335930587307001570000010713250347026423691_);}	.st10{fill:url(#SVGID_00000158745362144662566030000001761295838711395741_);}	.st11{fill:url(#SVGID_00000120523053759520193150000011812182891537748633_);}	.st12{fill:url(#SVGID_00000091693328837542346620000003721775351924691102_);}	.st13{opacity:0.75;fill:url(#SVGID_00000150096820673173952770000005386144893955991215_);}	.st14{fill:url(#SVGID_00000145747466142783632530000015303757847487010950_);}	.st15{fill:none;stroke:#CBCBCB;stroke-width:0.5;stroke-miterlimit:10;}	.st16{fill:#B2B2B2;}	.st17{fill:#00A89C;}	.st18{fill:url(#SVGID_00000005255626546963709280000017831940833465133237_);}	.st19{fill:url(#SVGID_00000165949540420272848340000018043971689415888796_);}	.st20{fill:url(#SVGID_00000016067491339405473830000014053568871259968131_);}	.st21{fill:url(#SVGID_00000026869564384770606830000004793734441359014815_);}	.st22{fill:url(#SVGID_00000013195193775762307740000018370872969785270703_);}	.st23{fill:url(#SVGID_00000072249035900943843210000005313684177719452343_);}	.st24{opacity:0.75;fill:url(#SVGID_00000074440561115034802210000002928903681484348815_);}	.st25{fill:url(#SVGID_00000076596976039117618720000006658541182991605684_);}	.st26{fill:none;stroke:#FAAF3B;stroke-width:3;stroke-miterlimit:10;}	.st27{fill:url(#SVGID_00000095337119655289726800000016266539245983971212_);}	.st28{fill:url(#SVGID_00000036221023100838604000000000513642993497342131_);}	.st29{fill:url(#SVGID_00000076573029516825083360000003445950634089935510_);}	.st30{fill:url(#SVGID_00000134963381394318515130000007441652820767411621_);}	.st31{fill:url(#SVGID_00000074401563613321373780000014832977028000344474_);}	.st32{fill:url(#SVGID_00000000190679425508142240000015997035947026824832_);}	.st33{fill:url(#SVGID_00000173851955123922810830000005706697209447134354_);}	.st34{fill:url(#SVGID_00000108296827057334259160000009783938010055560116_);}	.st35{fill:url(#SVGID_00000142854661130789382520000001640581884384633002_);}	.st36{fill:url(#SVGID_00000049204881140883265990000001117308309497542564_);}	.st37{opacity:0.75;fill:url(#SVGID_00000080174172338776879430000007566243860958662543_);}	.st38{fill:url(#SVGID_00000085943549768887416260000001260832577899293594_);}	.st39{fill:url(#SVGID_00000166647702421684670070000008008921243160578956_);}	.st40{fill:url(#SVGID_00000009558956101235968140000011257893772044709286_);}	.st41{fill:url(#SVGID_00000085228090220720910020000004968002754688791969_);}	.st42{fill:url(#SVGID_00000160891364401432711740000015222270622711485101_);}	.st43{fill:url(#SVGID_00000005257670060682754940000002080503237937111728_);}	.st44{fill:url(#SVGID_00000107587916033109651810000005145171540914809497_);}	.st45{opacity:0.75;fill:url(#SVGID_00000174577537588278280010000017703941329405446827_);}	.st46{fill:url(#SVGID_00000011031856825597883180000011798433484932729278_);}	.st47{fill:url(#SVGID_00000145774315033119768070000017137892023358926472_);}	.st48{fill:url(#SVGID_00000106852397598484717280000004875272867700577959_);}	.st49{fill:url(#SVGID_00000160183730978280548780000004185411413352914105_);}	.st50{fill:url(#SVGID_00000121278214047332111670000010257077167727526332_);}	.st51{fill:url(#SVGID_00000097492005860799421040000009740458134522215558_);}	.st52{fill:url(#SVGID_00000164476205909247073980000006623524967655625141_);}	.st53{opacity:0.75;fill:url(#SVGID_00000176040472275813664300000012265715886612646794_);}	.st54{fill:url(#SVGID_00000160187355551424659650000011619367169316691131_);}	.st55{fill:#FAAF3B;}	.st56{fill:none;stroke:#00A89C;stroke-width:1.5;stroke-miterlimit:10;}	.st57{fill:url(#SVGID_00000161608245943049311260000002122249342632552620_);}	.st58{fill:url(#SVGID_00000087398148099883329750000010447707982700460932_);}	.st59{fill:url(#SVGID_00000168097752266207550070000000269107315362113463_);}	.st60{fill:url(#SVGID_00000155126976899163534080000002775522775283285411_);}	.st61{fill:url(#SVGID_00000075139352195928886810000013549685557059759515_);}	.st62{fill:url(#SVGID_00000041274177319071243160000002042945065006917763_);}	.st63{opacity:0.75;fill:url(#SVGID_00000132768379512535262740000011088071774983255217_);}	.st64{fill:url(#SVGID_00000142148213934752585340000015035892437705420455_);}	.st65{fill:none;stroke:#FAAF3B;stroke-width:3.75;stroke-miterlimit:10;}	.st66{clip-path:url(#SVGID_00000152235276593412102320000017744663695919173033_);}	.st67{clip-path:url(#SVGID_00000095325772975795441830000011013674479640227496_);}	.st68{clip-path:url(#SVGID_00000036243046012550943600000000662079921898213276_);}	.st69{clip-path:url(#SVGID_00000065057840328737128190000001141589433575699131_);}	.st70{clip-path:url(#SVGID_00000140005605635697485850000007307744135482919848_);}	.st71{fill:#333333;}	.st72{fill:#038D84;}	.st73{fill:url(#SVGID_00000005977568173163224190000014000669625483527306_);}	.st74{fill:url(#SVGID_00000160870881306375253570000014873773014219303101_);}	.st75{fill:url(#SVGID_00000089574367220323534580000012561786282223741341_);}	.st76{fill:url(#SVGID_00000033367520861686812870000002022309849355869349_);}	.st77{fill:url(#SVGID_00000056421037157776228500000007619240966066297732_);}	.st78{fill:url(#SVGID_00000082348163479417269000000007415442388619220369_);}	.st79{opacity:0.75;fill:url(#SVGID_00000127745260200920435640000004925964443618917538_);}	.st80{fill:url(#SVGID_00000050636625338307495480000011263316715087953555_);}	.st81{fill:none;stroke:#FFFFFF;stroke-width:1.5;stroke-miterlimit:10;}	.st82{fill:none;stroke:#F6921E;stroke-width:2;stroke-miterlimit:10;}	.st83{fill:#F6921E;}	.st84{fill:none;stroke:#FFFFFF;stroke-width:2;stroke-miterlimit:10;}	.st85{fill:#FF00FF;}	.st86{fill:none;stroke:#FFFFFF;stroke-width:3;stroke-linecap:round;stroke-linejoin:round;stroke-miterlimit:10;}	.st87{fill:url(#SVGID_00000155119227012713277490000011178979963211040923_);}	.st88{fill:#FFB900;}	.st89{fill:#98D1CF;}	.st90{fill:url(#SVGID_00000155833122776341425040000013921499034754802865_);}	.st91{fill:url(#SVGID_00000008121430922147788130000001360713244362508476_);}	.st92{fill:url(#SVGID_00000137822347950836000430000005213550996094797445_);}	.st93{fill:url(#SVGID_00000102504348090343076040000007969170753278484887_);}	.st94{fill:url(#SVGID_00000048468728709175933600000002254713713720294834_);}	.st95{fill:url(#SVGID_00000175288531427210874910000004097366136275212686_);}	.st96{opacity:0.75;fill:url(#SVGID_00000158731643713803086410000009788431735535340936_);}	.st97{fill:url(#SVGID_00000041284989249606629700000008723692604505905592_);}	.st98{fill:url(#SVGID_00000140727722274647467760000005540009441658842805_);}	.st99{fill:url(#SVGID_00000051384937920636067860000006778544546759982983_);}	.st100{fill:url(#SVGID_00000021084796829185099260000013935771149448906416_);}	.st101{opacity:0.75;fill:url(#SVGID_00000142896126456471441190000012305032560493619883_);}	.st102{fill:#808080;}	.st103{fill:#E38104;}	.st104{clip-path:url(#SVGID_00000104699380715125671180000004128069336562956186_);}</style><g id="XMLID_00000170979658411162544380000016607082166887698865_">	<path id="XMLID_00000139976868770893093450000011050320324930347672_" d="M10.4,54.2h31.9l16.5,11c0.3,0.2,0.6,0.3,1,0.3  c0.3,0,0.6-0.1,0.8-0.2c0.6-0.3,0.9-0.9,0.9-1.5V53.3c3.2-1.4,7.1-4.3,7.1-8.2V13.6c0-5-4.1-9.1-9.1-9.1H10.4c-5,0-9.1,4.1-9.1,9.1  v31.5C1.4,50.1,5.4,54.2,10.4,54.2z M4.9,13.6c0-3.1,2.5-5.6,5.6-5.6h49.1c3.1,0,5.6,2.5,5.6,5.6v31.5c0,2.1-3.1,4.5-5.8,5.3  c-0.7,0.2-1.2,0.9-1.2,1.7v8.4l-14.2-9.5c-0.3-0.2-0.6-0.3-1-0.3H10.4c-3.1,0-5.6-2.5-5.6-5.6V13.6z"></path>	<path id="XMLID_00000119813204709813889110000017944201136229015946_" d="M14.2,22.8h41.4c1.8,0,3.3-1.5,3.3-3.3  c0-1.8-1.5-3.3-3.3-3.3H14.2c-1.8,0-3.3,1.5-3.3,3.3C10.9,21.3,12.4,22.8,14.2,22.8z M14.2,18.3h41.4c0.7,0,1.2,0.5,1.2,1.2  c0,0.7-0.5,1.2-1.2,1.2H14.2c-0.7,0-1.2-0.5-1.2-1.2C13,18.8,13.6,18.3,14.2,18.3z"></path>	<path id="XMLID_00000148643090537145563530000001316178363945608637_" d="M14.2,32.5h41.4c1.8,0,3.3-1.5,3.3-3.3  c0-1.8-1.5-3.3-3.3-3.3H14.2c-1.8,0-3.3,1.5-3.3,3.3C10.9,31,12.4,32.5,14.2,32.5z M14.2,28h41.4c0.7,0,1.2,0.5,1.2,1.2  c0,0.7-0.5,1.2-1.2,1.2H14.2c-0.7,0-1.2-0.5-1.2-1.2C13,28.5,13.6,28,14.2,28z"></path>	<path id="XMLID_00000177467038915201014870000009727309822143338166_" d="M14.2,41.8h41.4c1.8,0,3.3-1.5,3.3-3.3  c0-1.8-1.5-3.3-3.3-3.3H14.2c-1.8,0-3.3,1.5-3.3,3.3C10.9,40.4,12.4,41.8,14.2,41.8z M14.2,37.3h41.4c0.7,0,1.2,0.5,1.2,1.2  c0,0.7-0.5,1.2-1.2,1.2H14.2c-0.7,0-1.2-0.5-1.2-1.2C13,37.9,13.6,37.3,14.2,37.3z"></path></g></svg>