<svg xmlns="http://www.w3.org/2000/svg" xmlns:xlink="http://www.w3.org/1999/xlink" id="Capa_1" x="0px" y="0px" viewBox="0 0 70 70" style="enable-background:new 0 0 70 70;" xml:space="preserve"><style type="text/css">	.st0{clip-path:url(#SVGID_00000083076606206529794690000003201371550452337567_);}	.st1{clip-path:url(#SVGID_00000132766209075344219240000006134428223543606660_);}	.st2{clip-path:url(#SVGID_00000136410493681530074490000008440263417182935963_);}	.st3{opacity:0.8;fill:#4D4D4D;}	.st4{fill:#FFFFFF;}	.st5{fill:url(#SVGID_00000075141646811602334320000010309038690710711956_);}	.st6{fill:url(#SVGID_00000063620889249789757300000010080954206731369097_);}	.st7{fill:#6F6F6E;}	.st8{fill:#038D84;stroke:#038D84;stroke-width:0.4125;stroke-miterlimit:10;}	.st9{fill:url(#SVGID_00000145764385234916750310000006046856606593854364_);}	.st10{fill:url(#SVGID_00000153686084214619201080000015741485314583771287_);}	.st11{fill:url(#SVGID_00000173152711448860670110000007972441259021151360_);}	.st12{fill:url(#SVGID_00000153669814358707808620000016916174122116295810_);}	.st13{opacity:0.75;fill:url(#SVGID_00000154392862471895255300000011217245578494331012_);}	.st14{fill:url(#SVGID_00000170959509691328719460000011102483949645715881_);}	.st15{fill:none;stroke:#CBCBCB;stroke-width:0.5;stroke-miterlimit:10;}	.st16{fill:#B2B2B2;}	.st17{fill:#00A89C;}	.st18{fill:url(#SVGID_00000142177740342118811610000010005631940261930895_);}	.st19{fill:url(#SVGID_00000124162396193693932980000012898608092358051988_);}	.st20{fill:url(#SVGID_00000143614965026867403390000005925726626626292908_);}	.st21{fill:url(#SVGID_00000003063306641305256980000011705056053704120449_);}	.st22{fill:url(#SVGID_00000011723070355408724350000006804103362743958412_);}	.st23{fill:url(#SVGID_00000131331853908795079130000003044167378011186870_);}	.st24{opacity:0.75;fill:url(#SVGID_00000162330031757209802070000018019563754134834589_);}	.st25{fill:url(#SVGID_00000140712286244474964350000002362420065339390119_);}	.st26{fill:none;stroke:#FAAF3B;stroke-width:3;stroke-miterlimit:10;}	.st27{fill:url(#SVGID_00000056425640415392816280000002296975993036307346_);}	.st28{fill:url(#SVGID_00000039826971761927379600000003953361169970769831_);}	.st29{fill:url(#SVGID_00000099652380912362860750000010486979387850108093_);}	.st30{fill:url(#SVGID_00000005230433083498995100000004289549452847238298_);}	.st31{fill:url(#SVGID_00000003086648312875429700000004617101825709901745_);}	.st32{fill:url(#SVGID_00000096743084282069091250000011675436822125303692_);}	.st33{fill:url(#SVGID_00000149350791282992134720000006246977829865935021_);}	.st34{fill:url(#SVGID_00000135689783429084428670000002677693104523624364_);}	.st35{fill:url(#SVGID_00000128485062229428713030000010636732399808735132_);}	.st36{fill:url(#SVGID_00000154406475556881388370000007463826129612561536_);}	.st37{opacity:0.75;fill:url(#SVGID_00000135652849986729579210000006331252841796813190_);}	.st38{fill:url(#SVGID_00000179611141041161196900000015363398010531476373_);}	.st39{fill:url(#SVGID_00000002342479913826596380000001153750985067490967_);}	.st40{fill:url(#SVGID_00000063619840511856119070000012377545602080273336_);}	.st41{fill:url(#SVGID_00000079483424679015454090000004970305299546646158_);}	.st42{fill:url(#SVGID_00000153673121968531516460000000135961382952996245_);}	.st43{fill:url(#SVGID_00000027567676107184539980000005561048907817301912_);}	.st44{fill:url(#SVGID_00000049207743094361433400000008806816680028074897_);}	.st45{opacity:0.75;fill:url(#SVGID_00000020387391563750688170000010648942879893645456_);}	.st46{fill:url(#SVGID_00000005227540035078589390000016092773998898584759_);}	.st47{fill:url(#SVGID_00000057122576439831123690000008117694346175762052_);}	.st48{fill:url(#SVGID_00000060027689307941209840000012828161921299883660_);}	.st49{fill:url(#SVGID_00000062908170910029957630000016468975997520825251_);}	.st50{fill:url(#SVGID_00000159462538572965561810000009619657010482528698_);}	.st51{fill:url(#SVGID_00000133492517294610682640000009792267714777002903_);}	.st52{fill:url(#SVGID_00000099633452348271107200000003416614111881613957_);}	.st53{opacity:0.75;fill:url(#SVGID_00000111906490859860628020000011211922029194119356_);}	.st54{fill:url(#SVGID_00000168821460167494975630000009690330190047636909_);}	.st55{fill:#FAAF3B;}	.st56{fill:none;stroke:#00A89C;stroke-width:1.5;stroke-miterlimit:10;}	.st57{fill:url(#SVGID_00000034796390958577328690000006471800516247727543_);}	.st58{fill:url(#SVGID_00000110472522059448001880000003106608359921944199_);}	.st59{fill:url(#SVGID_00000147942384752140633420000004272992803832658347_);}	.st60{fill:url(#SVGID_00000003064740006445455940000015764093078269546658_);}	.st61{fill:url(#SVGID_00000109737534117536652680000015543841954656449671_);}	.st62{fill:url(#SVGID_00000101062057667281667010000017369919043220878249_);}	.st63{opacity:0.75;fill:url(#SVGID_00000139992068587184093120000014993219790796208020_);}	.st64{fill:url(#SVGID_00000080897909734589177390000017204778964876761216_);}	.st65{fill:none;stroke:#FAAF3B;stroke-width:3.75;stroke-miterlimit:10;}	.st66{clip-path:url(#SVGID_00000105387032719010579360000001734435678926106499_);}	.st67{clip-path:url(#SVGID_00000029737915802615264000000015751378003862102924_);}	.st68{clip-path:url(#SVGID_00000164514525700606250780000003097244172509095581_);}	.st69{clip-path:url(#SVGID_00000173154001338158948050000002010873274455339650_);}	.st70{clip-path:url(#SVGID_00000098920270055921098860000013252030078211889077_);}	.st71{fill:#333333;}	.st72{fill:#038D84;}	.st73{fill:url(#SVGID_00000085218800680007686090000013622933453401077908_);}	.st74{fill:url(#SVGID_00000098899389200456176820000012969194304571227812_);}	.st75{fill:url(#SVGID_00000059997939649494737850000003620903382599356844_);}	.st76{fill:url(#SVGID_00000079450925396707247490000007335833872968548003_);}	.st77{fill:url(#SVGID_00000068651892261466693990000007150594099220582573_);}	.st78{fill:url(#SVGID_00000063622341338182332500000018275259004276718257_);}	.st79{opacity:0.75;fill:url(#SVGID_00000111168718282412422720000013958720546745515165_);}	.st80{fill:url(#SVGID_00000142143819436470831600000006319712620728566415_);}	.st81{fill:none;stroke:#FFFFFF;stroke-width:1.5;stroke-miterlimit:10;}	.st82{fill:none;stroke:#F6921E;stroke-width:2;stroke-miterlimit:10;}	.st83{fill:#F6921E;}	.st84{fill:none;stroke:#FFFFFF;stroke-width:2;stroke-miterlimit:10;}	.st85{fill:#FF00FF;}	.st86{fill:none;stroke:#FFFFFF;stroke-width:3;stroke-linecap:round;stroke-linejoin:round;stroke-miterlimit:10;}	.st87{fill:url(#SVGID_00000145755587535948524740000011398319685583781807_);}	.st88{fill:#FFB900;}	.st89{fill:#98D1CF;}	.st90{fill:url(#SVGID_00000026158242839988507040000013300610288410419367_);}	.st91{fill:url(#SVGID_00000165216552489056239740000002096150168100614327_);}	.st92{fill:url(#SVGID_00000115506661344799414840000002725934082348749714_);}	.st93{fill:url(#SVGID_00000127036488113136220760000014506595248181664906_);}	.st94{fill:url(#SVGID_00000009551470619643097080000004610454461214193073_);}	.st95{fill:url(#SVGID_00000163783678007028938160000009823270635483698854_);}	.st96{opacity:0.75;fill:url(#SVGID_00000096028712976783478200000005165190906065910200_);}	.st97{fill:url(#SVGID_00000015329484579938948470000017087410674221518760_);}	.st98{fill:url(#SVGID_00000057841535099282313940000017799093903049101452_);}	.st99{fill:url(#SVGID_00000097497721783573553470000012421105658176674742_);}	.st100{fill:url(#SVGID_00000006695528825378908270000016113107295397423491_);}	.st101{opacity:0.75;fill:url(#SVGID_00000073680567267986781430000006258911889485876413_);}	.st102{fill:#808080;}	.st103{fill:#E38104;}	.st104{clip-path:url(#SVGID_00000119819242018797611430000004796632738895402419_);}</style><g>	<path d="M31.1,56.7c0.2,2,1.1,3.8,2.5,5.2c0.2,0.2,0.4,0.3,0.6,0.3c0.1,0,0.2,0,0.3,0c0.3-0.1,0.6-0.4,0.6-0.7  c0.2-1.3,1.4-2.3,2.7-2.3h4.5c1.1,0,2.1,0.7,2.5,1.7c0.1,0.3,0.4,0.5,0.7,0.6c0.3,0,0.6-0.1,0.8-0.3c1.4-1.7,2-3.9,1.8-6.2  c-0.4-4-3.6-7.2-7.6-7.6c-0.3,0-0.6,0-0.9,0c-2.4,0-4.7,1-6.3,2.8C31.6,51.9,30.9,54.2,31.1,56.7z M39.6,57.8  c-1.8,0-3.2-1.5-3.2-3.2s1.5-3.2,3.2-3.2c1.8,0,3.2,1.5,3.2,3.2S41.4,57.8,39.6,57.8z M34.6,51.3c1.3-1.4,3.1-2.2,5-2.2  c0.2,0,0.5,0,0.7,0c3.2,0.3,5.7,2.8,6,6c0.1,1.3-0.1,2.6-0.7,3.8c-0.7-0.8-1.7-1.3-2.8-1.5c0.6-0.7,1-1.7,1-2.8  c0-2.4-1.9-4.3-4.3-4.3c-2.4,0-4.3,1.9-4.3,4.3c0,1.1,0.4,2.2,1.2,2.9c-1.1,0.3-2,1-2.6,2c-0.6-0.9-0.9-1.9-1-3  C32.7,54.5,33.3,52.7,34.6,51.3z"></path>	<path d="M19.6,13.2c-8.5,0-15.4,6.9-15.4,15.4c0,4.1,1.6,8,4.6,11c0.3,0.3,0.6,0.3,1,0.2c0.3-0.1,0.6-0.5,0.6-0.8v-0.8  c0-2.8,2.1-5.1,4.8-5.4c0,0,0,0,0,0c0.2,0,0.4,0,0.6,0h7.8c3,0,5.4,2.4,5.4,5.4V39c0,0.4,0.2,0.7,0.5,0.8c0.1,0,0.2,0.1,0.3,0.1  c0.2,0,0.5-0.1,0.6-0.3c3-2.9,4.6-6.8,4.6-11C35.1,20.1,28.2,13.2,19.6,13.2z M20.5,31h-1.7c-2.9-0.4-5.1-2.9-5.1-5.9  c0-3.3,2.7-6,5.9-6c3.3,0,6,2.7,6,6C25.6,28.1,23.4,30.6,20.5,31z M30.6,36.8c-0.6-3.1-3.2-5.4-6.4-5.7c1.8-1.4,2.9-3.5,2.9-5.9  c0-4.1-3.4-7.5-7.5-7.5c-4.1,0-7.5,3.4-7.5,7.5c0,2.4,1.1,4.6,2.9,5.9c0,0,0,0-0.1,0c0,0-0.1,0-0.1,0c-3.1,0.4-5.6,2.7-6.2,5.7  C6.9,34.4,6,31.6,6,28.7C6,21.1,12.1,15,19.6,15c7.5,0,13.7,6.1,13.7,13.7C33.3,31.6,32.3,34.4,30.6,36.8z"></path>	<path d="M54.1,5c-6.4,0-11.6,5.2-11.6,11.6c0,6.4,5.2,11.6,11.6,11.6c6.4,0,11.6-5.2,11.6-11.6C65.7,10.2,60.5,5,54.1,5z   M54.1,26.4c-5.4,0-9.8-4.4-9.8-9.8c0-5.4,4.4-9.8,9.8-9.8c5.4,0,9.8,4.4,9.8,9.8C63.9,22,59.5,26.4,54.1,26.4z"></path>	<path d="M54.1,2.5C46.3,2.5,40,8.8,40,16.6c0,0.7,0.1,1.5,0.2,2.2l-4.5,1.6c-3.1-6-9.3-9.8-16.1-9.8c-10,0-18.1,8.1-18.1,18.1  c0,10,8.1,18.1,18.1,18.1c2.7,0,5.4-0.6,7.8-1.8l3.5,3.9c-1.8,2.3-2.6,5.1-2.3,8c0.5,5.2,4.7,9.4,9.9,9.9c0.4,0,0.7,0.1,1.1,0.1  c3.1,0,6.1-1.3,8.2-3.6c2.1-2.3,3.1-5.4,2.8-8.5c-0.5-5.2-4.7-9.4-9.9-9.9c-2.2-0.2-4.5,0.3-6.5,1.4l-3.2-3.5  c4.2-3.4,6.6-8.6,6.6-14c0-1.4-0.2-2.8-0.5-4.3l4.3-1.5c2.4,4.7,7.2,7.8,12.6,7.8c7.8,0,14.1-6.3,14.1-14.1  C68.2,8.8,61.9,2.5,54.1,2.5z M54.1,28.9c-4.9,0-9.3-2.9-11.3-7.4c-0.2-0.4-0.7-0.6-1.1-0.5L35.8,23c-0.4,0.2-0.7,0.6-0.6,1.1  c0.4,1.5,0.7,3,0.7,4.6c0,5.2-2.5,10.1-6.7,13.1c-0.2,0.1-0.3,0.4-0.4,0.6c0,0.3,0.1,0.5,0.2,0.7l4.3,4.8c0.3,0.3,0.8,0.4,1.2,0.2  c1.8-1.2,3.9-1.7,6-1.5c4.4,0.4,7.8,3.9,8.3,8.3c0.3,2.7-0.6,5.2-2.4,7.2c-1.8,1.9-4.3,3-6.9,3c-0.3,0-0.6,0-0.9,0  c-4.4-0.4-7.8-3.9-8.3-8.3c-0.3-2.7,0.6-5.2,2.3-7.1c0,0,0.1-0.1,0.1-0.1c0.3-0.3,0.3-0.8,0-1.2l-4.5-5c-0.2-0.2-0.4-0.3-0.7-0.3  c-0.1,0-0.3,0-0.4,0.1c-2.4,1.2-4.9,1.9-7.6,1.9c-9,0-16.3-7.3-16.3-16.3c0-9,7.3-16.3,16.3-16.3c6.3,0,12.1,3.7,14.8,9.5  c0.2,0.4,0.7,0.6,1.1,0.5l6-2.1c0.4-0.2,0.7-0.6,0.6-1c-0.2-0.9-0.3-1.8-0.3-2.6c0-6.8,5.5-12.3,12.3-12.3  c6.8,0,12.3,5.5,12.3,12.3S60.9,28.9,54.1,28.9z"></path></g></svg>