<svg xmlns="http://www.w3.org/2000/svg" xmlns:xlink="http://www.w3.org/1999/xlink" id="Capa_1" x="0px" y="0px" viewBox="0 0 70 70" style="enable-background:new 0 0 70 70;" xml:space="preserve"><style type="text/css">	.st0{clip-path:url(#SVGID_00000055697723961220710460000008594398330353831062_);}	.st1{clip-path:url(#SVGID_00000032618900729297732410000013571273269384913579_);}	.st2{clip-path:url(#SVGID_00000125577509875515948550000005202402253715960992_);}	.st3{opacity:0.8;fill:#4D4D4D;}	.st4{fill:#FFFFFF;}	.st5{fill:url(#SVGID_00000147208439655035265500000011644361826951460237_);}	.st6{fill:url(#SVGID_00000136410088489589884910000010855351451371450003_);}	.st7{fill:#6F6F6E;}	.st8{fill:#038D84;stroke:#038D84;stroke-width:0.4125;stroke-miterlimit:10;}	.st9{fill:url(#SVGID_00000071538852893429903900000015680674133143395472_);}	.st10{fill:url(#SVGID_00000151532328735174835500000009467160339439264390_);}	.st11{fill:url(#SVGID_00000066488001544512233560000014753603374103033517_);}	.st12{fill:url(#SVGID_00000160166835750332777350000017665151869842375855_);}	.st13{opacity:0.75;fill:url(#SVGID_00000124882726523472991300000000211897759252041859_);}	.st14{fill:url(#SVGID_00000138564201741084057430000013163931814191023756_);}	.st15{fill:none;stroke:#CBCBCB;stroke-width:0.5;stroke-miterlimit:10;}	.st16{fill:#B2B2B2;}	.st17{fill:#00A89C;}	.st18{fill:url(#SVGID_00000016047377890168348780000002722769965056339876_);}	.st19{fill:url(#SVGID_00000173845886497985448460000004989145165192496298_);}	.st20{fill:url(#SVGID_00000076604125730260681190000002404367335124568758_);}	.st21{fill:url(#SVGID_00000090288438429079833990000011142618461302947239_);}	.st22{fill:url(#SVGID_00000011017087834965947690000012204981700971508670_);}	.st23{fill:url(#SVGID_00000164496206132294163350000005329504889511783553_);}	.st24{opacity:0.75;fill:url(#SVGID_00000096057492792216480810000008649943370304888509_);}	.st25{fill:url(#SVGID_00000129894193855025914510000001054074184657988273_);}	.st26{fill:none;stroke:#FAAF3B;stroke-width:3;stroke-miterlimit:10;}	.st27{fill:url(#SVGID_00000009579003364020265290000004898165930896520084_);}	.st28{fill:url(#SVGID_00000147920110457830748780000006839156319444744102_);}	.st29{fill:url(#SVGID_00000109021053047397713200000000116862099644734127_);}	.st30{fill:url(#SVGID_00000128463789884795793810000011220057188329622415_);}	.st31{fill:url(#SVGID_00000119084075962433419070000017864810792363300497_);}	.st32{fill:url(#SVGID_00000088106999345220467130000015641776737424367513_);}	.st33{fill:url(#SVGID_00000176724877574832579310000006062332973739025036_);}	.st34{fill:url(#SVGID_00000033333204951786056600000011002494086948441765_);}	.st35{fill:url(#SVGID_00000129202283226809485620000009471976820524428682_);}	.st36{fill:url(#SVGID_00000147187442671216262540000000006257555493151105_);}	.st37{opacity:0.75;fill:url(#SVGID_00000152982881679539837590000011884050908299580818_);}	.st38{fill:url(#SVGID_00000025430427620637456820000015212966530562293167_);}	.st39{fill:url(#SVGID_00000031892488297419387390000006244292747274670508_);}	.st40{fill:url(#SVGID_00000018930965592326149090000016789891392755790219_);}	.st41{fill:url(#SVGID_00000101098944734471109330000004144694042965381815_);}	.st42{fill:url(#SVGID_00000092447434545810796530000012210352449338796969_);}	.st43{fill:url(#SVGID_00000171692431089881821150000010337880139295614654_);}	.st44{fill:url(#SVGID_00000159441802074227332850000011464847188777418130_);}	.st45{opacity:0.75;fill:url(#SVGID_00000023960382676169402850000014218634796343721140_);}	.st46{fill:url(#SVGID_00000048469605702203886890000003877907554723224501_);}	.st47{fill:url(#SVGID_00000139997482575501551450000010807121217064048516_);}	.st48{fill:url(#SVGID_00000029029612696336620530000005600185731851958961_);}	.st49{fill:url(#SVGID_00000179625909070422917380000003021871847164066986_);}	.st50{fill:url(#SVGID_00000123417934100724322650000012762898166772720559_);}	.st51{fill:url(#SVGID_00000159439155208461403070000011351562992586105733_);}	.st52{fill:url(#SVGID_00000031917077212009144750000002179694881207190704_);}	.st53{opacity:0.75;fill:url(#SVGID_00000176725274472737367810000016757668233550327743_);}	.st54{fill:url(#SVGID_00000161603164862636224080000003660673342116432260_);}	.st55{fill:#FAAF3B;}	.st56{fill:none;stroke:#00A89C;stroke-width:1.5;stroke-miterlimit:10;}	.st57{fill:url(#SVGID_00000029737703884015993100000008757145707169172868_);}	.st58{fill:url(#SVGID_00000040539449339490529170000004434914201406197943_);}	.st59{fill:url(#SVGID_00000147936753911648361970000010092150169461825168_);}	.st60{fill:url(#SVGID_00000077302200727812633630000014622139854123506080_);}	.st61{fill:url(#SVGID_00000054948455809030127070000001017443948773118864_);}	.st62{fill:url(#SVGID_00000010280480295270928480000010673534533486177726_);}	.st63{opacity:0.75;fill:url(#SVGID_00000094606015049077436270000008625999742744427674_);}	.st64{fill:url(#SVGID_00000181771136262192450820000014269696074591523500_);}	.st65{fill:none;stroke:#FAAF3B;stroke-width:3.75;stroke-miterlimit:10;}	.st66{clip-path:url(#SVGID_00000050646300685566948410000010270911908515829634_);}	.st67{clip-path:url(#SVGID_00000106127008612794399110000008056558351827209106_);}	.st68{clip-path:url(#SVGID_00000083091209609662914920000011571317064687273120_);}	.st69{clip-path:url(#SVGID_00000091007229868194419890000016001041781341524156_);}	.st70{clip-path:url(#SVGID_00000027592564750297525980000015659990987456949153_);}	.st71{fill:#333333;}	.st72{fill:#038D84;}	.st73{fill:url(#SVGID_00000048489899728161742560000006048788004631903649_);}	.st74{fill:url(#SVGID_00000152961194237179344030000004635658814699004350_);}	.st75{fill:url(#SVGID_00000023244430344630330670000014651674422294238642_);}	.st76{fill:url(#SVGID_00000031915331859048023790000007799526414198393486_);}	.st77{fill:url(#SVGID_00000109028554344416699010000015378212164982468520_);}	.st78{fill:url(#SVGID_00000142870078571542646850000017683549824001437374_);}	.st79{opacity:0.75;fill:url(#SVGID_00000168100928707591690000000015953616685722873987_);}	.st80{fill:url(#SVGID_00000114040432233823131920000012195598527529488055_);}	.st81{fill:none;stroke:#FFFFFF;stroke-width:1.5;stroke-miterlimit:10;}	.st82{fill:none;stroke:#F6921E;stroke-width:2;stroke-miterlimit:10;}	.st83{fill:#F6921E;}	.st84{fill:none;stroke:#FFFFFF;stroke-width:2;stroke-miterlimit:10;}	.st85{fill:#FF00FF;}	.st86{fill:none;stroke:#FFFFFF;stroke-width:3;stroke-linecap:round;stroke-linejoin:round;stroke-miterlimit:10;}	.st87{fill:url(#SVGID_00000127746707647585185020000011911453642048225192_);}	.st88{fill:#FFB900;}	.st89{fill:#98D1CF;}	.st90{fill:url(#SVGID_00000049186693442507522560000011936336899844874419_);}	.st91{fill:url(#SVGID_00000023991535860554945390000000567962054613097625_);}	.st92{fill:url(#SVGID_00000061437671963518599040000003918621416197087122_);}	.st93{fill:url(#SVGID_00000080182826689512128330000008963384924637096884_);}	.st94{fill:url(#SVGID_00000148623726172466540170000013838483523972368773_);}	.st95{fill:url(#SVGID_00000067925620480323795270000009749299707774485428_);}	.st96{opacity:0.75;fill:url(#SVGID_00000148638151137950710350000005174472969906044834_);}	.st97{fill:url(#SVGID_00000167384656962391430540000000979615895655588755_);}	.st98{fill:url(#SVGID_00000047755979807283520210000003388284203206796187_);}	.st99{fill:url(#SVGID_00000049931385072085719530000014678051181122214051_);}	.st100{fill:url(#SVGID_00000012434944383468361910000016856681536694027917_);}	.st101{opacity:0.75;fill:url(#SVGID_00000168107436647025896760000005892312900414802366_);}	.st102{fill:#808080;}	.st103{fill:#E38104;}	.st104{clip-path:url(#SVGID_00000016065223233646335010000011947761863445407627_);}</style><g id="XMLID_00000081627860586479485770000007379165236186675609_">	<path id="XMLID_00000129912324740028623500000008732367650481375902_" d="M65,14.8c-0.1-0.1-0.1-0.2-0.2-0.3l-0.1-0.1  c-0.5-0.5-1.1-0.7-1.8-0.5c-0.7,0.2-1.2,0.7-1.3,1.3c-0.2,0.6-0.5,1.1-0.9,1.5c-0.9,0.8-2.1,1.1-3.2,0.7c-1.2-0.4-2-1.5-2.2-3  c0-0.1,0-0.2,0-0.2c0.3-1.6,1.3-2.6,2.7-2.9c0.7-0.1,1.2-0.6,1.4-1.2c0.2-0.6,0.1-1.3-0.4-1.8l-4.5-4.8C54.3,3.2,54,3,53.6,2.9  c-0.1,0-0.2,0-0.3,0c-0.4,0-0.9,0.2-1.2,0.5l-4.3,3.9c-0.2-0.6-0.6-1.1-1-1.6c-2-2.1-5.4-2.3-7.6-0.3c-2.1,2.1-2.3,5.4-0.3,7.6  c0.4,0.5,0.9,0.9,1.5,1.1L36.3,18c-0.1,0.1-0.2,0.2-0.2,0.2c-0.2,0.3-0.3,0.6-0.4,0.9c0,0.1,0,0.2,0,0.3c0.1,0.4,0.2,0.7,0.5,1  l4.4,4.8c0.4,0.5,1.1,0.7,1.8,0.5c0.7-0.2,1.2-0.7,1.4-1.3c0.4-1.3,1.5-2.2,3.1-2.4c0.1,0,0.2,0,0.2,0c1.4,0.3,2.5,1.2,2.8,2.5  c0.3,1.1-0.1,2.3-0.9,3.1c-0.4,0.4-1,0.7-1.6,0.8c-0.7,0.1-1.2,0.6-1.4,1.2c-0.2,0.6-0.1,1.3,0.4,1.8l0.1,0.1  c0.1,0.1,0.2,0.2,0.3,0.2l4.2,4.5c0.3,0.3,0.7,0.5,1.1,0.6c0,0,0.1,0,0.1,0c0.1,0,0.1,0,0.2,0c0.2,0,0.4-0.1,0.6-0.2  c0.1,0,0.2-0.1,0.4-0.3l4.6-4.2c0.1-0.1,0.1-0.1,0.2-0.2c0.3-0.5,0.4-1.1,0.3-1.6c-0.2-0.5-0.6-1-1.1-1.2c-0.5-0.2-0.9-0.4-1.2-0.8  c-0.6-0.6-0.9-1.5-0.8-2.3c0.1-0.9,0.5-1.6,1.1-2.2c0,0,0.1,0,0.1-0.1c0.6-0.6,1.4-0.9,2.3-0.9c0.9,0,1.7,0.4,2.3,1  c0.3,0.4,0.6,0.8,0.7,1.3c0.2,0.5,0.5,1,1.1,1.2c0.5,0.2,1.1,0.2,1.6-0.1c0.1,0,0.1-0.1,0.2-0.1l4.6-4.3c0.3-0.2,0.4-0.6,0.5-0.9  c0-0.1,0-0.2,0-0.3c0-0.4-0.2-0.9-0.5-1.2L65,14.8z M63.6,23.8c-0.2-0.5-0.6-1-1-1.5c-1-1.1-2.4-1.7-3.9-1.7  c-1.5,0-2.9,0.5-3.9,1.6c-1.1,1-1.8,2.3-1.9,3.8c-0.1,1.5,0.4,2.9,1.4,4c0.4,0.4,0.9,0.8,1.4,1.1l-3.6,3.3l-3.6-3.9  c0.7-0.2,1.4-0.6,1.9-1.1c1.5-1.4,2.1-3.4,1.6-5.4c-0.5-2-2.2-3.6-4.5-4.1c-0.3-0.1-0.7-0.1-1.1,0c-2.2,0.3-3.9,1.6-4.7,3.4  l-3.5-3.9l4.2-3.9c0.2-0.2,0.3-0.4,0.4-0.6c0.3-0.5,0.3-1,0.1-1.5c-0.2-0.5-0.6-0.9-1.1-1.1c-0.5-0.2-0.9-0.5-1.2-0.8  c-1.2-1.3-1.1-3.2,0.1-4.4c1.3-1.1,3.2-1,4.4,0.2c0.3,0.4,0.6,0.8,0.7,1.3c0.2,0.5,0.5,0.9,1,1.2c0.5,0.2,1,0.2,1.5,0  c0.2-0.1,0.4-0.2,0.6-0.4l4.2-3.9l3.6,3.8c-1.9,0.6-3.3,2.2-3.8,4.4C53,14,53,14.4,53,14.7c0.3,2.3,1.7,4.1,3.7,4.8  c1.9,0.7,4,0.2,5.5-1.2c0.5-0.5,1-1.1,1.3-1.8l3.6,3.9L63.6,23.8z"></path>	<path id="XMLID_00000108308285240999375940000006509286991187440787_" d="M7.7,65.3c0,1,0.8,1.8,1.8,1.8c0,0,0,0,0,0L30.7,67  c0.1,0,0.1,0,0.2,0c0.2,0.1,0.5,0.1,0.7,0.1l6.6,0c0.1,0,0.2,0,0.2,0c0.6-0.1,1-0.5,1.3-1c0.2-0.5,0.2-1.1,0-1.6  c-0.3-0.7-0.7-2,0.4-3.6c0-0.1,0.1-0.1,0.2-0.2c0.7-0.5,1.5-0.8,2.2-0.8c1.7,0,3.1,1.4,3.1,3.1c0,0.5-0.1,1-0.3,1.4  c-0.3,0.5-0.3,1.1,0,1.6c0.3,0.5,0.7,0.9,1.3,1c0.1,0,0.1,0,0.2,0l6.2,0c0.5,0,1-0.2,1.3-0.5c0.3-0.4,0.5-0.8,0.5-1.3l0-6.5  c0-1-0.8-1.8-1.8-1.8c-0.4,0-0.7,0.1-1,0.3c-0.5,0.3-1.1,0.5-1.7,0.5c-1.2,0-2.2-0.6-2.8-1.7c-0.6-1.1-0.5-2.5,0.4-3.7  c0-0.1,0.1-0.1,0.2-0.2c0.7-0.5,1.5-0.8,2.2-0.8c0.6,0,1.2,0.2,1.7,0.5c0.7,0.5,1.7,0.3,2.3-0.2c0.3-0.3,0.5-0.8,0.5-1.3l0-6.6  c0-1-0.8-1.8-1.9-1.8l-5.6,0c0.2-0.6,0.3-1.2,0.3-1.8c0-3-2.5-5.4-5.4-5.4c-1.2,0-2.4,0.4-3.5,1.1c0.2-0.2,0.3-0.5,0.5-0.7  c1-1.9,0.8-4.1-0.6-6c-0.2-0.3-0.5-0.5-0.7-0.7c-1.7-1.1-3.6-1.4-5.3-0.8l0-5.6c0-1-0.8-1.8-1.9-1.8l-5.6,0  c0.6-1.7,0.3-3.7-0.9-5.4c-0.2-0.3-0.5-0.5-0.7-0.7c-1.1-0.7-2.3-1.1-3.5-1.1c0,0,0,0,0,0c-1.5,0-2.8,0.6-3.9,1.6  c-1,1-1.6,2.4-1.6,3.9c0,0.6,0.1,1.2,0.3,1.8l-5.6,0c-0.5,0-1,0.2-1.3,0.5c-0.3,0.3-0.5,0.8-0.5,1.3l0,6.6c0,0.1,0,0.2,0,0.2  c0.2,0.8,0.9,1.5,1.8,1.5c0.3,0,0.6-0.1,0.8-0.2c1.1-0.6,2.4-0.4,3.6,0.4c0.1,0,0.1,0.1,0.2,0.2c0.8,1.2,1,2.6,0.4,3.7  c-0.5,1-1.6,1.7-2.8,1.7c-0.5,0-1-0.1-1.4-0.3c-0.3-0.1-0.5-0.2-0.8-0.2c-0.9,0-1.6,0.6-1.8,1.5c0,0.1,0,0.1,0,0.2l0,6.2  c0,0.2,0,0.3,0.1,0.5c0,0,0,0.1,0,0.1l0,5.4c-1.7-0.6-3.7-0.3-5.4,0.9c-0.3,0.2-0.5,0.5-0.7,0.7C0.2,53,0,55.2,1,57.1  c1,1.8,2.8,2.9,4.8,2.9c0.6,0,1.2-0.1,1.8-0.3L7.7,65.3z M39.3,43.3c0.3-0.5,0.4-1.2,0.1-1.8c-0.3-0.7-0.7-2,0.4-3.6  c0-0.1,0.1-0.1,0.2-0.2c0.7-0.5,1.5-0.8,2.2-0.8c1.7,0,3.1,1.4,3.2,3.1c0,0.5-0.1,1-0.3,1.4c-0.3,0.6-0.3,1.2,0.1,1.8  c0.3,0.6,0.9,0.9,1.6,0.9l5.8,0l0,5.4c-1.8-0.8-4-0.6-5.8,0.7c-0.3,0.2-0.5,0.5-0.7,0.8c-1.3,1.9-1.5,4.2-0.5,6  c0.9,1.8,2.8,2.9,4.8,2.9c0.8,0,1.5-0.2,2.2-0.5l0,5.3l-5,0c0.2-0.6,0.3-1.2,0.3-1.8c0-3-2.5-5.4-5.4-5.4c-1.2,0-2.4,0.4-3.5,1.2  c-0.3,0.2-0.5,0.5-0.7,0.7c-1.2,1.7-1.4,3.6-0.8,5.3l-5.3,0l0-5.9c0-1-0.8-1.8-1.8-1.8c-0.3,0-0.6,0.1-0.8,0.2  c-0.4,0.2-0.9,0.4-1.5,0.4c-1.2,0-2.2-0.6-2.8-1.7c-0.6-1.1-0.5-2.5,0.4-3.7c0-0.1,0.1-0.1,0.2-0.2c1.2-0.9,2.6-1,3.7-0.4  c0.7,0.4,1.6,0.2,2.1-0.3c0.3-0.4,0.5-0.8,0.5-1.3l0-5.9l5.8,0C38.4,44.2,38.9,43.9,39.3,43.3z M37,41.9l-4.5,0l0-4.2  c0.6,0.2,1.2,0.3,1.8,0.3c1.3,0,2.5-0.5,3.5-1.3C36.7,38.4,36.4,40.3,37,41.9z M11.4,38.3c2,0,3.9-1.1,4.8-2.9c1-1.9,0.8-4.1-0.6-6  c-0.2-0.3-0.5-0.5-0.7-0.7c-1.7-1.1-3.6-1.4-5.3-0.8l0-5.3l5.9,0c0.7,0,1.2-0.3,1.6-0.9c0.3-0.5,0.3-1.2,0.1-1.8  c-0.2-0.4-0.4-0.9-0.4-1.4c0-0.8,0.3-1.6,0.9-2.2c0.6-0.6,1.4-0.9,2.2-0.9c0,0,0,0,0,0c0.7,0,1.5,0.2,2.2,0.7  c0.1,0,0.1,0.1,0.2,0.2c0.8,1.2,1,2.6,0.4,3.7c-0.3,0.6-0.3,1.2,0.1,1.8c0.3,0.5,0.9,0.9,1.6,0.9l5.9,0l0,5.8c0,1,0.8,1.8,1.8,1.8  c0.3,0,0.6-0.1,0.8-0.2c1.1-0.6,2.4-0.4,3.6,0.4c0.1,0,0.1,0.1,0.2,0.2c0.8,1.2,1,2.6,0.4,3.7c-0.5,1-1.6,1.7-2.8,1.7  c-0.5,0-1-0.1-1.4-0.3c-0.7-0.3-1.6-0.2-2.1,0.3c-0.3,0.4-0.5,0.8-0.5,1.3l0,5.3c-0.1,0.1-0.2,0.2-0.3,0.3v0h0l0,0  c0,0.1-0.1,0.1-0.1,0.2l-5.6,0c-0.3,0-0.5-0.1-0.6-0.3c-0.1-0.2-0.1-0.5,0-0.7c1-1.5,0.9-3.5-0.3-5.2c-0.1-0.2-0.3-0.3-0.4-0.4  c-0.9-0.6-1.9-0.9-2.9-0.9c-1.2,0-2.2,0.4-3,1.3c-0.8,0.8-1.3,1.9-1.2,3.1c0,0.8,0.2,1.6,0.7,2.3c0.1,0.2,0.2,0.5,0,0.7  c-0.1,0.2-0.4,0.4-0.6,0.4l-6.2,0l0-5C10.2,38.2,10.8,38.3,11.4,38.3z M5.8,57.7c-1.2,0-2.2-0.6-2.8-1.7c-0.6-1.1-0.5-2.5,0.4-3.7  c0-0.1,0.1-0.1,0.2-0.2c1.2-0.8,2.6-1,3.7-0.4C7.8,52,8.4,52,9,51.7c0.6-0.3,0.9-0.9,0.9-1.6l0-4.8l6.1,0c1.1,0,2.1-0.6,2.6-1.6  c0.5-1,0.5-2.1-0.1-3.1C18.2,40.4,18,40,18,39.6c0-0.5,0.2-1,0.6-1.4c0.7-0.7,1.9-0.8,2.9-0.1c0.4,0.6,0.8,1.6,0.2,2.6  c-0.6,0.9-0.6,2.1-0.1,3c0.5,0.9,1.5,1.5,2.6,1.5l5.3,0l0,4.2c-1.7-0.6-3.7-0.3-5.4,0.9c-0.3,0.2-0.5,0.5-0.7,0.7  c-1.3,1.9-1.5,4.2-0.5,6c0.9,1.8,2.8,2.9,4.8,2.9c0.6,0,1.2-0.1,1.8-0.3l0,4.9c0,0.1-0.1,0.1-0.1,0.2L9.9,64.8l0-5.9  c0-0.7-0.3-1.2-0.9-1.6c-0.5-0.3-1.2-0.3-1.8-0.1C6.8,57.6,6.3,57.7,5.8,57.7z"></path></g></svg>